<svg xmlns="http://www.w3.org/2000/svg" viewBox="0 0 172.01 129.93"><defs><style>.cls-1,.cls-2{fill:#fff;}.cls-1{stroke:#fff;stroke-miterlimit:10;}</style></defs><g id="Livello_2" data-name="Livello 2"><g id="Livello_1-2" data-name="Livello 1"><circle class="cls-1" cx="130.47" cy="41.54" r="5.97"/><path class="cls-2" d="M133.94.14a41.58,41.58,0,0,0-44.75,46c2.19,20.28,21.31,37.13,41.71,36.92a41.35,41.35,0,0,0,12.52-2,3.16,3.16,0,0,0,2-4.22h0a3.91,3.91,0,0,0-4.74-2.24,34.16,34.16,0,0,1-8.83,1.49,34.54,34.54,0,1,1,1.53-68.93C150.79,8.53,165,24.66,165,42.17V84.7c0,17.83-14.51,34-32.3,35.1A34.57,34.57,0,0,1,96.1,88.72a3.79,3.79,0,0,0-3.8-3.38h0a3.24,3.24,0,0,0-3.21,3.55,41.59,41.59,0,0,0,44.08,37.9c22-1.4,38.84-20.17,38.84-42.2V42.3C172,20.56,155.6,1.91,133.94.14Z"/><path class="cls-2" d="M40.58,0C18.25.51,0,20,0,42.36v83.81a3.76,3.76,0,0,0,3.76,3.76h0A3.24,3.24,0,0,0,7,126.69V84.31a1.23,1.23,0,0,1,1.23-1.23h23.7a3.48,3.48,0,0,0,3.48-3.48h0a3.52,3.52,0,0,0-3.53-3.52H8.23A1.24,1.24,0,0,1,7,74.84V42.31c0-20,16.7-36.49,36.7-35.24A34.59,34.59,0,0,1,75.93,38.34a3.46,3.46,0,0,0,3.42,3.2h1.14A2.5,2.5,0,0,0,83,38.89,41.59,41.59,0,0,0,40.58,0Z"/><circle class="cls-1" cx="41.38" cy="42.55" r="5.97"/></g></g></svg>